<svg width="1000" height="1000" viewBox="0 0 1000 1000" fill="none" xmlns="http://www.w3.org/2000/svg">
<mask id="path-1-inside-1" fill="white">
<path fill-rule="evenodd" clip-rule="evenodd" d="M363.072 0H347.32L0 601.577V628.859L363.072 0ZM0 668.859V700.265L404.298 0H386.166L0 668.859ZM306.97 0H324.227L0 561.577V531.687L306.97 0ZM283.876 0H267.279L0 462.941V491.687L283.876 0ZM231.506 0H244.185L0 422.941V400.979L231.506 0ZM208.412 0H192.279L0 333.037V360.979L208.412 0ZM0 767.064V740.265L427.392 0H442.865L0 767.064ZM567.638 0H546.732L0 946.968V983.178L567.638 0ZM13.3818 1000H36.5143L613.865 0H590.732L13.3818 1000ZM505.917 0H523.638L0 906.968V876.274L505.917 0ZM482.823 0H465.959L0 807.064V836.274L482.823 0ZM59.6083 1000H82.5143L659.865 0H636.959L59.6083 1000ZM828.959 0H859.638L282.288 1000H251.608L828.959 0ZM323.288 1000H305.382L882.732 0H900.638L323.288 1000ZM805.865 0H783L205.65 1000H228.514L805.865 0ZM734.732 0H759.906L182.556 1000H157.382L734.732 0ZM711.638 0H682.959L105.608 1000H134.288L711.638 0ZM938.906 0H923.732L346.382 1000H361.556L938.906 0ZM384.65 1000H403.556L980.906 0H962L384.65 1000ZM449.382 1000H426.65L1000 6.92818V46.3013L449.382 1000ZM472.476 1000H495.528L1000 126.229V86.3013L472.476 1000ZM597.686 1000H575.78L1000 265.23V303.172L597.686 1000ZM518.622 1000H552.686L1000 225.229V166.23L518.622 1000ZM620.78 1000H646.089L1000 387.009V343.172L620.78 1000ZM669.183 1000H698.286L1000 477.415V427.009L669.183 1000ZM893.092 1000H869.33L1000 773.673V814.831L893.092 1000ZM817.391 1000H846.236L1000 733.673V683.711L817.391 1000ZM794.297 1000H767.927L1000 598.037V643.711L794.297 1000ZM721.38 1000H744.833L1000 558.037V517.415L721.38 1000ZM965.269 1000H987.836L1000 978.931V939.845L965.269 1000ZM942.175 1000H916.186L1000 854.831V899.845L942.175 1000ZM115.917 0H129.906L0 225.004V200.774L115.917 0ZM0 293.037V265.004L153 0H169.185L0 293.037ZM92.8231 0H77.1436L0 133.617V160.774L92.8231 0ZM42.3701 0H54.0496L0 93.6166V73.3872L42.3701 0ZM19.2761 0H9.20428L0 15.9423V33.3871L19.2761 0Z"/>
</mask>
<path fill-rule="evenodd" clip-rule="evenodd" d="M363.072 0H347.32L0 601.577V628.859L363.072 0ZM0 668.859V700.265L404.298 0H386.166L0 668.859ZM306.97 0H324.227L0 561.577V531.687L306.97 0ZM283.876 0H267.279L0 462.941V491.687L283.876 0ZM231.506 0H244.185L0 422.941V400.979L231.506 0ZM208.412 0H192.279L0 333.037V360.979L208.412 0ZM0 767.064V740.265L427.392 0H442.865L0 767.064ZM567.638 0H546.732L0 946.968V983.178L567.638 0ZM13.3818 1000H36.5143L613.865 0H590.732L13.3818 1000ZM505.917 0H523.638L0 906.968V876.274L505.917 0ZM482.823 0H465.959L0 807.064V836.274L482.823 0ZM59.6083 1000H82.5143L659.865 0H636.959L59.6083 1000ZM828.959 0H859.638L282.288 1000H251.608L828.959 0ZM323.288 1000H305.382L882.732 0H900.638L323.288 1000ZM805.865 0H783L205.65 1000H228.514L805.865 0ZM734.732 0H759.906L182.556 1000H157.382L734.732 0ZM711.638 0H682.959L105.608 1000H134.288L711.638 0ZM938.906 0H923.732L346.382 1000H361.556L938.906 0ZM384.65 1000H403.556L980.906 0H962L384.65 1000ZM449.382 1000H426.65L1000 6.92818V46.3013L449.382 1000ZM472.476 1000H495.528L1000 126.229V86.3013L472.476 1000ZM597.686 1000H575.78L1000 265.23V303.172L597.686 1000ZM518.622 1000H552.686L1000 225.229V166.23L518.622 1000ZM620.78 1000H646.089L1000 387.009V343.172L620.78 1000ZM669.183 1000H698.286L1000 477.415V427.009L669.183 1000ZM893.092 1000H869.33L1000 773.673V814.831L893.092 1000ZM817.391 1000H846.236L1000 733.673V683.711L817.391 1000ZM794.297 1000H767.927L1000 598.037V643.711L794.297 1000ZM721.38 1000H744.833L1000 558.037V517.415L721.38 1000ZM965.269 1000H987.836L1000 978.931V939.845L965.269 1000ZM942.175 1000H916.186L1000 854.831V899.845L942.175 1000ZM115.917 0H129.906L0 225.004V200.774L115.917 0ZM0 293.037V265.004L153 0H169.185L0 293.037ZM92.8231 0H77.1436L0 133.617V160.774L92.8231 0ZM42.3701 0H54.0496L0 93.6166V73.3872L42.3701 0ZM19.2761 0H9.20428L0 15.9423V33.3871L19.2761 0Z" fill="#FF4E4E"/>
<path d="M363.072 0L365.67 1.5L368.268 -3L363.072 -3V0ZM347.32 0V-3H345.588L344.722 -1.5L347.32 0ZM0 601.577L-2.59808 600.077L-3 600.773V601.577H0ZM0 628.859H-3V640.055L2.59808 630.359L0 628.859ZM0 668.859L-2.59808 667.359L-3 668.055V668.859H0ZM0 700.265H-3V711.461L2.59808 701.765L0 700.265ZM404.298 0L406.896 1.5L409.494 -3L404.298 -3V0ZM386.166 0V-3H384.434L383.568 -1.5L386.166 0ZM324.227 0L326.825 1.5L329.423 -3H324.227V0ZM306.97 0V-3H305.238L304.372 -1.5L306.97 0ZM0 561.577H-3V572.773L2.59808 563.077L0 561.577ZM0 531.687L-2.59808 530.187L-3 530.883V531.687H0ZM267.279 0V-3H265.547L264.681 -1.5L267.279 0ZM283.876 0L286.474 1.5L289.072 -3L283.876 -3V0ZM0 462.941L-2.59808 461.441L-3 462.137V462.941H0ZM0 491.687H-3V502.883L2.59808 493.187L0 491.687ZM244.185 0L246.783 1.5L249.381 -3L244.185 -3V0ZM231.506 0V-3H229.774L228.907 -1.5L231.506 0ZM0 422.941H-3V434.137L2.59808 424.441L0 422.941ZM0 400.979L-2.59808 399.479L-3 400.176V400.979H0ZM192.279 0V-3H190.547L189.681 -1.5L192.279 0ZM208.412 0L211.01 1.5L213.608 -3L208.412 -3V0ZM0 333.037L-2.59808 331.537L-3 332.233V333.037H0ZM0 360.979H-3V372.176L2.59808 362.479L0 360.979ZM0 740.265L-2.59808 738.765L-3 739.461V740.265H0ZM0 767.064H-3V778.26L2.59808 768.564L0 767.064ZM427.392 0V-3H425.66L424.794 -1.5L427.392 0ZM442.865 0L445.463 1.5L448.061 -3L442.865 -3V0ZM546.732 0V-3H545L544.134 -1.5L546.732 0ZM567.638 0L570.236 1.5L572.834 -3L567.638 -3V0ZM0 946.968L-2.59808 945.468L-3 946.164V946.968H0ZM0 983.178H-3V994.374L2.59808 984.678L0 983.178ZM36.5143 1000V1003H38.2463L39.1123 1001.5L36.5143 1000ZM13.3818 1000L10.7837 998.5L8.18562 1003H13.3818V1000ZM613.865 0L616.463 1.5L619.061 -3H613.865V0ZM590.732 0V-3H589L588.134 -1.5L590.732 0ZM523.638 0L526.236 1.5L528.834 -3L523.638 -3V0ZM505.917 0V-3H504.185L503.319 -1.5L505.917 0ZM0 906.968H-3V918.164L2.59808 908.468L0 906.968ZM0 876.274L-2.59808 874.774L-3 875.47V876.274H0ZM465.959 0V-3H464.226L463.36 -1.5L465.959 0ZM482.823 0L485.421 1.5L488.019 -3H482.823V0ZM0 807.064L-2.59808 805.564L-3 806.26V807.064H0ZM0 836.274H-3V847.47L2.59808 837.774L0 836.274ZM82.5143 1000V1003H84.2463L85.1123 1001.5L82.5143 1000ZM59.6083 1000L57.0102 998.5L54.4121 1003H59.6083V1000ZM659.865 0L662.463 1.5L665.061 -3H659.865V0ZM636.959 0V-3H635.227L634.36 -1.5L636.959 0ZM859.638 0L862.236 1.5L864.834 -3H859.638V0ZM828.959 0V-3H827.227L826.36 -1.5L828.959 0ZM282.288 1000V1003H284.02L284.886 1001.5L282.288 1000ZM251.608 1000L249.01 998.5L246.412 1003H251.608V1000ZM305.382 1000L302.784 998.5L300.186 1003H305.382V1000ZM323.288 1000V1003H325.02L325.886 1001.5L323.288 1000ZM882.732 0V-3H881L880.134 -1.5L882.732 0ZM900.638 0L903.236 1.5L905.834 -3H900.638V0ZM783 0V-3H781.268L780.402 -1.5L783 0ZM805.865 0L808.463 1.5L811.061 -3H805.865V0ZM205.65 1000L203.052 998.5L200.454 1003H205.65V1000ZM228.514 1000V1003H230.246L231.112 1001.5L228.514 1000ZM759.906 0L762.504 1.5L765.102 -3H759.906V0ZM734.732 0V-3H733L732.134 -1.5L734.732 0ZM182.556 1000V1003H184.288L185.154 1001.5L182.556 1000ZM157.382 1000L154.784 998.5L152.186 1003H157.382V1000ZM682.959 0V-3H681.227L680.36 -1.5L682.959 0ZM711.638 0L714.236 1.5L716.834 -3H711.638V0ZM105.608 1000L103.01 998.5L100.412 1003H105.608V1000ZM134.288 1000V1003H136.02L136.886 1001.5L134.288 1000ZM923.732 0V-3H922L921.134 -1.5L923.732 0ZM938.906 0L941.504 1.5L944.102 -3L938.906 -3V0ZM346.382 1000L343.784 998.5L341.186 1003H346.382V1000ZM361.556 1000V1003H363.288L364.154 1001.5L361.556 1000ZM403.556 1000V1003H405.288L406.154 1001.5L403.556 1000ZM384.65 1000L382.052 998.5L379.454 1003H384.65V1000ZM980.906 0L983.504 1.5L986.102 -3L980.906 -3V0ZM962 0V-3H960.268L959.402 -1.5L962 0ZM426.65 1000L424.052 998.5L421.454 1003H426.65V1000ZM449.382 1000V1003H451.114L451.98 1001.5L449.382 1000ZM1000 6.92818H1003V-4.26797L997.402 5.42818L1000 6.92818ZM1000 46.3013L1002.6 47.8013L1003 47.1051V46.3013H1000ZM495.528 1000V1003H497.26L498.126 1001.5L495.528 1000ZM472.476 1000L469.878 998.5L467.28 1003H472.476V1000ZM1000 126.229L1002.6 127.729L1003 127.033V126.229H1000ZM1000 86.3013H1003V75.1052L997.402 84.8013L1000 86.3013ZM575.78 1000L573.182 998.5L570.584 1003H575.78V1000ZM597.686 1000V1003H599.418L600.284 1001.5L597.686 1000ZM1000 265.23H1003V254.033L997.402 263.73L1000 265.23ZM1000 303.172L1002.6 304.672L1003 303.976V303.172H1000ZM552.686 1000V1003H554.418L555.284 1001.5L552.686 1000ZM518.622 1000L516.024 998.5L513.426 1003H518.622V1000ZM1000 225.229L1002.6 226.729L1003 226.033V225.229H1000ZM1000 166.23H1003V155.033L997.402 164.73L1000 166.23ZM646.089 1000V1003H647.821L648.687 1001.5L646.089 1000ZM620.78 1000L618.182 998.5L615.584 1003H620.78V1000ZM1000 387.009L1002.6 388.509L1003 387.813V387.009H1000ZM1000 343.172H1003V331.976L997.402 341.672L1000 343.172ZM698.286 1000V1003H700.018L700.884 1001.5L698.286 1000ZM669.183 1000L666.585 998.5L663.987 1003H669.183V1000ZM1000 477.415L1002.6 478.915L1003 478.219V477.415H1000ZM1000 427.009H1003V415.813L997.402 425.509L1000 427.009ZM869.33 1000L866.732 998.5L864.134 1003H869.33V1000ZM893.092 1000V1003H894.824L895.69 1001.5L893.092 1000ZM1000 773.673H1003V762.477L997.402 772.173L1000 773.673ZM1000 814.831L1002.6 816.331L1003 815.634V814.831H1000ZM846.236 1000V1003H847.968L848.834 1001.5L846.236 1000ZM817.391 1000L814.793 998.5L812.195 1003H817.391V1000ZM1000 733.673L1002.6 735.173L1003 734.477V733.673H1000ZM1000 683.711H1003V672.515L997.402 682.211L1000 683.711ZM767.927 1000L765.329 998.5L762.73 1003H767.927V1000ZM794.297 1000V1003H796.029L796.895 1001.5L794.297 1000ZM1000 598.037H1003V586.841L997.402 596.537L1000 598.037ZM1000 643.711L1002.6 645.211L1003 644.515V643.711H1000ZM744.833 1000V1003H746.565L747.431 1001.5L744.833 1000ZM721.38 1000L718.782 998.5L716.183 1003H721.38V1000ZM1000 558.037L1002.6 559.537L1003 558.841V558.037H1000ZM1000 517.415H1003V506.219L997.402 515.915L1000 517.415ZM987.836 1000V1003H989.568L990.434 1001.5L987.836 1000ZM965.269 1000L962.671 998.5L960.073 1003H965.269V1000ZM1000 978.931L1002.6 980.431L1003 979.734V978.931H1000ZM1000 939.845H1003V928.649L997.402 938.345L1000 939.845ZM916.186 1000L913.588 998.5L910.99 1003H916.186V1000ZM942.175 1000V1003H943.907L944.773 1001.5L942.175 1000ZM1000 854.831H1003V843.635L997.402 853.331L1000 854.831ZM1000 899.845L1002.6 901.345L1003 900.649V899.845H1000ZM129.906 0L132.504 1.5L135.102 -3H129.906V0ZM115.917 0V-3H114.185L113.319 -1.5L115.917 0ZM0 225.004H-3V236.2L2.59808 226.504L0 225.004ZM0 200.774L-2.59808 199.274L-3 199.97V200.774H0ZM0 265.004L-2.59808 263.504L-3 264.2V265.004H0ZM0 293.037H-3V304.233L2.59808 294.537L0 293.037ZM153 0V-3H151.268L150.402 -1.5L153 0ZM169.185 0L171.783 1.5L174.381 -3L169.185 -3V0ZM77.1436 0V-3H75.4115L74.5455 -1.5L77.1436 0ZM92.8231 0L95.4212 1.5L98.0192 -3H92.8231V0ZM0 133.617L-2.59808 132.117L-3 132.813V133.617H0ZM0 160.774H-3V171.97L2.59808 162.274L0 160.774ZM54.0496 0L56.6477 1.5L59.2457 -3H54.0496V0ZM42.3701 0V-3H40.638L39.772 -1.5L42.3701 0ZM0 93.6166H-3V104.813L2.59808 95.1166L0 93.6166ZM0 73.3872L-2.59808 71.8872L-3 72.5833V73.3872H0ZM9.20428 0V-3H7.47223L6.60621 -1.5L9.20428 0ZM19.2761 0L21.8742 1.5L24.4722 -3H19.2761V0ZM0 15.9423L-2.59808 14.4423L-3 15.1384V15.9423H0ZM0 33.3871H-3V44.5833L2.59808 34.8871L0 33.3871ZM363.072 -3H347.32V3H363.072V-3ZM344.722 -1.5L-2.59808 600.077L2.59808 603.077L349.919 1.5L344.722 -1.5ZM-3 601.577V628.859H3V601.577H-3ZM2.59808 630.359L365.67 1.5L360.474 -1.5L-2.59808 627.359L2.59808 630.359ZM-3 668.859V700.265H3V668.859H-3ZM2.59808 701.765L406.896 1.5L401.7 -1.5L-2.59808 698.765L2.59808 701.765ZM404.298 -3H386.166V3H404.298V-3ZM383.568 -1.5L-2.59808 667.359L2.59808 670.359L388.764 1.5L383.568 -1.5ZM324.227 -3H306.97V3H324.227V-3ZM2.59808 563.077L326.825 1.5L321.628 -1.5L-2.59808 560.077L2.59808 563.077ZM-3 531.687V561.577H3V531.687H-3ZM304.372 -1.5L-2.59808 530.187L2.59808 533.187L309.568 1.5L304.372 -1.5ZM267.279 3H283.876V-3H267.279V3ZM2.59808 464.441L269.877 1.5L264.681 -1.5L-2.59808 461.441L2.59808 464.441ZM3 491.687V462.941H-3V491.687H3ZM281.278 -1.5L-2.59808 490.187L2.59808 493.187L286.474 1.5L281.278 -1.5ZM244.185 -3H231.506V3H244.185V-3ZM2.59808 424.441L246.783 1.5L241.587 -1.5L-2.59808 421.441L2.59808 424.441ZM-3 400.979V422.941H3V400.979H-3ZM228.907 -1.5L-2.59808 399.479L2.59808 402.479L234.104 1.5L228.907 -1.5ZM192.279 3H208.412V-3H192.279V3ZM2.59808 334.537L194.877 1.5L189.681 -1.5L-2.59808 331.537L2.59808 334.537ZM3 360.979V333.037H-3V360.979H3ZM205.813 -1.5L-2.59808 359.479L2.59808 362.479L211.01 1.5L205.813 -1.5ZM-3 740.265V767.064H3V740.265H-3ZM424.794 -1.5L-2.59808 738.765L2.59808 741.765L429.99 1.5L424.794 -1.5ZM442.865 -3H427.392V3H442.865V-3ZM2.59808 768.564L445.463 1.5L440.266 -1.5L-2.59808 765.564L2.59808 768.564ZM546.732 3H567.638V-3H546.732V3ZM2.59808 948.468L549.33 1.5L544.134 -1.5L-2.59808 945.468L2.59808 948.468ZM3 983.178V946.968H-3V983.178H3ZM565.04 -1.5L-2.59808 981.678L2.59808 984.678L570.236 1.5L565.04 -1.5ZM36.5143 997H13.3818V1003H36.5143V997ZM611.266 -1.5L33.9162 998.5L39.1123 1001.5L616.463 1.5L611.266 -1.5ZM590.732 3H613.865V-3H590.732V3ZM15.9798 1001.5L593.33 1.5L588.134 -1.5L10.7837 998.5L15.9798 1001.5ZM523.638 -3H505.917V3H523.638V-3ZM2.59808 908.468L526.236 1.5L521.04 -1.5L-2.59808 905.468L2.59808 908.468ZM-3 876.274V906.968H3V876.274H-3ZM503.319 -1.5L-2.59808 874.774L2.59808 877.774L508.515 1.5L503.319 -1.5ZM465.959 3H482.823V-3H465.959V3ZM2.59808 808.564L468.557 1.5L463.36 -1.5L-2.59808 805.564L2.59808 808.564ZM3 836.274V807.064H-3V836.274H3ZM480.225 -1.5L-2.59808 834.774L2.59808 837.774L485.421 1.5L480.225 -1.5ZM82.5143 997H59.6083V1003H82.5143V997ZM657.266 -1.5L79.9162 998.5L85.1123 1001.5L662.463 1.5L657.266 -1.5ZM636.959 3H659.865V-3H636.959V3ZM62.2063 1001.5L639.557 1.5L634.36 -1.5L57.0102 998.5L62.2063 1001.5ZM859.638 -3H828.959V3H859.638V-3ZM284.886 1001.5L862.236 1.5L857.04 -1.5L279.69 998.5L284.886 1001.5ZM251.608 1003H282.288V997H251.608V1003ZM826.36 -1.5L249.01 998.5L254.206 1001.5L831.557 1.5L826.36 -1.5ZM305.382 1003H323.288V997H305.382V1003ZM880.134 -1.5L302.784 998.5L307.98 1001.5L885.33 1.5L880.134 -1.5ZM900.638 -3H882.732V3H900.638V-3ZM325.886 1001.5L903.236 1.5L898.04 -1.5L320.69 998.5L325.886 1001.5ZM783 3H805.865V-3H783V3ZM208.248 1001.5L785.598 1.5L780.402 -1.5L203.052 998.5L208.248 1001.5ZM228.514 997H205.65V1003H228.514V997ZM803.266 -1.5L225.916 998.5L231.112 1001.5L808.463 1.5L803.266 -1.5ZM759.906 -3H734.732V3H759.906V-3ZM185.154 1001.5L762.504 1.5L757.308 -1.5L179.958 998.5L185.154 1001.5ZM157.382 1003H182.556V997H157.382V1003ZM732.134 -1.5L154.784 998.5L159.98 1001.5L737.33 1.5L732.134 -1.5ZM682.959 3H711.638V-3H682.959V3ZM108.206 1001.5L685.557 1.5L680.36 -1.5L103.01 998.5L108.206 1001.5ZM134.288 997H105.608V1003H134.288V997ZM709.04 -1.5L131.69 998.5L136.886 1001.5L714.236 1.5L709.04 -1.5ZM923.732 3H938.906V-3H923.732V3ZM348.98 1001.5L926.33 1.5L921.134 -1.5L343.784 998.5L348.98 1001.5ZM361.556 997H346.382V1003H361.556V997ZM936.308 -1.5L358.958 998.5L364.154 1001.5L941.504 1.5L936.308 -1.5ZM403.556 997H384.65V1003H403.556V997ZM978.308 -1.5L400.958 998.5L406.154 1001.5L983.504 1.5L978.308 -1.5ZM962 3H980.906V-3H962V3ZM387.248 1001.5L964.598 1.5L959.402 -1.5L382.052 998.5L387.248 1001.5ZM426.65 1003H449.382V997H426.65V1003ZM997.402 5.42818L424.052 998.5L429.248 1001.5L1002.6 8.42818L997.402 5.42818ZM1003 46.3013V6.92818H997V46.3013H1003ZM451.98 1001.5L1002.6 47.8013L997.402 44.8013L446.784 998.5L451.98 1001.5ZM495.528 997H472.476V1003H495.528V997ZM997.402 124.729L492.93 998.5L498.126 1001.5L1002.6 127.729L997.402 124.729ZM997 86.3013V126.229H1003V86.3013H997ZM475.074 1001.5L1002.6 87.8013L997.402 84.8013L469.878 998.5L475.074 1001.5ZM575.78 1003H597.686V997H575.78V1003ZM997.402 263.73L573.182 998.5L578.378 1001.5L1002.6 266.73L997.402 263.73ZM1003 303.172V265.23H997V303.172H1003ZM600.284 1001.5L1002.6 304.672L997.402 301.672L595.088 998.5L600.284 1001.5ZM552.686 997H518.622V1003H552.686V997ZM997.402 223.729L550.088 998.5L555.284 1001.5L1002.6 226.729L997.402 223.729ZM997 166.23V225.229H1003V166.23H997ZM521.22 1001.5L1002.6 167.73L997.402 164.73L516.024 998.5L521.22 1001.5ZM646.089 997H620.78V1003H646.089V997ZM997.402 385.509L643.491 998.5L648.687 1001.5L1002.6 388.509L997.402 385.509ZM997 343.172V387.009H1003V343.172H997ZM623.378 1001.5L1002.6 344.672L997.402 341.672L618.182 998.5L623.378 1001.5ZM698.286 997H669.183V1003H698.286V997ZM997.402 475.915L695.688 998.5L700.884 1001.5L1002.6 478.915L997.402 475.915ZM997 427.009V477.415H1003V427.009H997ZM671.782 1001.5L1002.6 428.509L997.402 425.509L666.585 998.5L671.782 1001.5ZM869.33 1003H893.092V997H869.33V1003ZM997.402 772.173L866.732 998.5L871.928 1001.5L1002.6 775.173L997.402 772.173ZM1003 814.831V773.673H997V814.831H1003ZM895.69 1001.5L1002.6 816.331L997.402 813.331L890.494 998.5L895.69 1001.5ZM846.236 997H817.391V1003H846.236V997ZM997.402 732.173L843.638 998.5L848.834 1001.5L1002.6 735.173L997.402 732.173ZM997 683.711V733.673H1003V683.711H997ZM819.989 1001.5L1002.6 685.211L997.402 682.211L814.793 998.5L819.989 1001.5ZM767.927 1003H794.297V997H767.927V1003ZM997.402 596.537L765.329 998.5L770.525 1001.5L1002.6 599.537L997.402 596.537ZM1003 643.711V598.037H997V643.711H1003ZM796.895 1001.5L1002.6 645.211L997.402 642.211L791.699 998.5L796.895 1001.5ZM744.833 997H721.38V1003H744.833V997ZM997.402 556.537L742.235 998.5L747.431 1001.5L1002.6 559.537L997.402 556.537ZM997 517.415V558.037H1003V517.415H997ZM723.978 1001.5L1002.6 518.915L997.402 515.915L718.782 998.5L723.978 1001.5ZM987.836 997H965.269V1003H987.836V997ZM997.402 977.431L985.237 998.5L990.434 1001.5L1002.6 980.431L997.402 977.431ZM997 939.845V978.931H1003V939.845H997ZM967.867 1001.5L1002.6 941.345L997.402 938.345L962.671 998.5L967.867 1001.5ZM916.186 1003H942.175V997H916.186V1003ZM997.402 853.331L913.588 998.5L918.785 1001.5L1002.6 856.331L997.402 853.331ZM1003 899.845V854.831H997V899.845H1003ZM944.773 1001.5L1002.6 901.345L997.402 898.345L939.577 998.5L944.773 1001.5ZM129.906 -3H115.917V3H129.906V-3ZM2.59808 226.504L132.504 1.5L127.308 -1.5L-2.59808 223.504L2.59808 226.504ZM-3 200.774V225.004H3V200.774H-3ZM113.319 -1.5L-2.59808 199.274L2.59808 202.274L118.515 1.5L113.319 -1.5ZM-3 265.004V293.037H3V265.004H-3ZM150.402 -1.5L-2.59808 263.504L2.59808 266.504L155.598 1.5L150.402 -1.5ZM169.185 -3H153V3H169.185V-3ZM2.59808 294.537L171.783 1.5L166.587 -1.5L-2.59808 291.537L2.59808 294.537ZM77.1436 3H92.8231V-3H77.1436V3ZM2.59808 135.117L79.7417 1.5L74.5455 -1.5L-2.59808 132.117L2.59808 135.117ZM3 160.774V133.617H-3V160.774H3ZM90.225 -1.5L-2.59808 159.274L2.59808 162.274L95.4212 1.5L90.225 -1.5ZM54.0496 -3H42.3701V3H54.0496V-3ZM2.59808 95.1166L56.6477 1.5L51.4515 -1.5L-2.59808 92.1166L2.59808 95.1166ZM-3 73.3872V93.6166H3V73.3872H-3ZM39.772 -1.5L-2.59808 71.8872L2.59808 74.8872L44.9682 1.5L39.772 -1.5ZM9.20428 3H19.2761V-3H9.20428V3ZM2.59808 17.4423L11.8024 1.5L6.60621 -1.5L-2.59808 14.4423L2.59808 17.4423ZM3 33.3871V15.9423H-3V33.3871H3ZM16.678 -1.5L-2.59808 31.8871L2.59808 34.8871L21.8742 1.5L16.678 -1.5Z" fill="#930000" mask="url(#path-1-inside-1)"/>
</svg>
