<svg width="252" height="238" viewBox="0 0 252 238" fill="none" xmlns="http://www.w3.org/2000/svg">
<path fill-rule="evenodd" clip-rule="evenodd" d="M39.7499 10.7499L10.26 40.2398V106.09H0.26001V36.09H0.267716L35.6 0.75769V0.749892H35.6078L35.6189 0.73877L35.6301 0.749892H105.6V10.7499H39.7499Z" fill="white"/>
<path fill-rule="evenodd" clip-rule="evenodd" d="M211.85 227.34L241.34 197.85V132H251.34V202H251.332L216 237.332V237.34H215.992L215.981 237.351L215.97 237.34H146V227.34H211.85Z" fill="white"/>
<path fill-rule="evenodd" clip-rule="evenodd" d="M241.34 40.4899L211.85 11L146 11V1L216 1V1.00771L251.332 36.34H251.34V36.3478L251.351 36.3589L251.34 36.37V106.34H241.34V40.4899Z" fill="white"/>
<path fill-rule="evenodd" clip-rule="evenodd" d="M11.0111 197.85L40.5011 227.34H106.351V237.34H36.3512V237.332L1.01892 202H1.01112V201.992L1 201.981L1.01112 201.97L1.01112 132H11.0111L11.0111 197.85Z" fill="white"/>
</svg>
